<svg id="Capa_1" data-name="Capa 1" xmlns="http://www.w3.org/2000/svg" viewBox="0 0 1418.15 762.36"><defs><style>.cls-1{fill:#010101;}</style></defs><path class="cls-1" d="M346.45,302.89c-23.31,31.3-56.85,57-88.85,57C189.4,359.85,151,305.24,151,249.51c0-40.29,17.79-74.37,52.67-101,31-23.24,63.43-32,83.06-32,16.7,0,34.71,5,44.71,12.79,5.8,4.89,8.86,8.72,8.86,14.52,0,11.42-12.52,25.22-20.47,25.22-2.19,0-4.54-.74-10-5.66-18.09-16.8-38.45-24.1-56.93-24.1-26.7,0-50.92,16.37-51.11,79.78-.19,74.42,47.18,102.6,78.47,102.6,23.34,0,40.67-5.3,61.33-24.9Z"/><path class="cls-1" d="M369.41,353.29v-8c30.69-5.11,32.17-7.84,32.17-49V186.1c0-33.62-1.84-36-26.54-42.88v-6.89c28.61-4,56.22-10.58,80.57-20.25-.55,11.29-1.09,42.83-1.09,65.29V296.14c0,40.45,2.92,43.35,33.23,49.17v8ZM424.34,61C408.6,61,395,47.8,395,30.61,395,12.49,408.6,0,424.89,0c17.55,0,30.42,12.49,30.42,30.61C455.31,47.8,442.44,61,424.34,61Z"/><path class="cls-1" d="M613.2,354c-7.46,3.83-15.6,5.82-19.43,5.82-35.45,0-55.57-19.73-55.57-63.74V139.2H504.61l-1.09-2.9L511.86,123H538.2V75.71c15.34-9.27,35.24-24.68,49.15-37.2l5.25.55c-.55,14.1-2,48.76-1.64,84h52.09c1.8,3.09.35,12.35-2.57,16.18H591V283.1c0,42,15.49,50.38,30.33,50.38a61.51,61.51,0,0,0,24.41-5.72l2.54,7.82Z"/><path class="cls-1" d="M908.39,130.45c-24.08,6-27.9,10.75-41.35,41.63-14.79,33.78-31.49,76.53-65.16,164.1-32.44,85.41-43.59,120.37-51.79,149.12-3.45,12-8.72,15.31-15.64,15.31-16.2,0-33.37-12-33.37-26.49,0-5.08,2.19-9.62,13.47-17.46,21.35-15.06,32.67-25.47,45.08-51.47,7.21-15.77,12.35-26.43,15-34.54,1.47-4.21-1.92-14.24-5.33-24-24-66.34-56.85-143.19-70.74-178.32-10.82-25.91-13.72-32.6-39.68-37.91V123H775.18v7.43c-28.54,6.4-30,10.39-22.17,30.48l51.06,132c15.69-42.66,36.24-95.08,46.22-129.14,6.56-20.58,4-26.21-31.49-33.32V123h89.59Z"/><path class="cls-1" d="M856,284.47l24.8-32.36c13.69-18,37.11-30,68.68-30,50.54,0,81.28,34.19,81.28,71.91,0,14.95-5.46,29-15.82,40.61-8.91,9.27-22.52,19.44-42.91,31,53.7,11.78,84.24,43,84.24,83.22,0,83.36-110.53,126.52-144.7,126.52-25.06,0-46.16-10.93-54.12-18.34-7.27-6.91-9.83-11.83-9.83-17.14,0-8.91,5.3-16.7,12-21,5.06-3.61,9-3.61,13.75.71C889,535.07,912.81,553,942.49,553c31.33,0,58.79-22.8,58.79-77.68,0-58.3-37.47-82.19-70.76-82.19-10.08,0-23,2.38-28.34,4.4l-2.54-9.26c56.68-18.23,80.27-35.09,80.27-76.12,0-38.95-24.95-57-54.12-57-29.54,0-45.75,14.56-63.6,35.5Z"/><path class="cls-1" d="M1265.67,505.73c-6.06,18.7-14.19,44.3-18.36,63.15H1079.1v-6.37c24.38-24.38,52.52-53.77,73.6-79,29.93-35.88,48.86-69.57,48.86-106.6,0-34.32-17.44-59.83-52.07-59.83-31.06,0-46.52,20.57-58.38,36.26l-5.63-4.75,23.3-33.65c11.9-16.15,34.83-29,62.26-29,40.89,0,75.62,28.52,75.62,76.89,0,36.3-16.58,60-58.6,102.92-20.68,21.17-43.85,44.41-64.24,64.53h86.86c26.07-.29,33.49-2.65,49.06-26.73Z"/><path class="cls-1" d="M26.41,689.64a20.79,20.79,0,0,0-5.43.83,3.77,3.77,0,0,0-2.34,2.38,18.93,18.93,0,0,0-.62,5.7v51.38a18.93,18.93,0,0,0,.62,5.7A3.6,3.6,0,0,0,21,758a18.64,18.64,0,0,0,5.43.57H34q6.42,0,9.78-1.82a10.67,10.67,0,0,0,4.92-5.85A46,46,0,0,0,51,739.16h2.39q-.32,3.21-.31,8.49c0,3.93.24,8.36.72,13.26q-7-.31-23.72-.31-19.89,0-30,.31v-2.07A20.88,20.88,0,0,0,5.44,758a3.75,3.75,0,0,0,2.33-2.38,18.93,18.93,0,0,0,.62-5.7V698.55a18.93,18.93,0,0,0-.62-5.7,3.75,3.75,0,0,0-2.33-2.38A20.88,20.88,0,0,0,0,689.64v-2.07q4.35.31,13.26.31,8.28,0,13.15-.31Z"/><path class="cls-1" d="M129.58,689.64a14.61,14.61,0,0,0-5.38,1.09,4.58,4.58,0,0,0-2.38,2.9,21.28,21.28,0,0,0-.63,6v31.18a71.32,71.32,0,0,1-1,12.79,27.57,27.57,0,0,1-3.26,9.16,18.17,18.17,0,0,1-7.62,7A24.35,24.35,0,0,1,98,762.36q-11.4,0-17.4-5.6a21,21,0,0,1-6.11-9.63q-1.56-5.39-1.56-16V698.55a18.6,18.6,0,0,0-.62-5.7A3.73,3.73,0,0,0,70,690.47a20.88,20.88,0,0,0-5.44-.83v-2.07q4.35.31,13.26.31,8.4,0,13.16-.31v2.07a20.88,20.88,0,0,0-5.44.83,3.73,3.73,0,0,0-2.33,2.38,18.93,18.93,0,0,0-.62,5.7v34.29a69.38,69.38,0,0,0,1.14,13.77,16.12,16.12,0,0,0,4.71,8.81q3.57,3.32,10.51,3.31,11,0,15.44-7t4.45-19.79V699.59q0-5.6-2-7.67t-7.41-2.28v-2.07q3.74.31,10.57.31,6.21,0,9.63-.31Z"/><path class="cls-1" d="M198.88,757.59a6.32,6.32,0,0,0,3.63,1.14v2.18q-7-.42-8.91-.42-3.42,0-14.61.42v-2.18a30.78,30.78,0,0,0,5.7-.36c1.1-.24,1.65-.67,1.65-1.3a3.37,3.37,0,0,0-.72-1.86l-17.71-27.14-11.19,16.68q-3.94,5.91-3.94,9.11a3.83,3.83,0,0,0,2.39,3.78,17.88,17.88,0,0,0,6.83,1.2v2.07q-5.9-.31-14-.31-5.7,0-8.8.31v-2.07a11.67,11.67,0,0,0,5.95-2.8,31.46,31.46,0,0,0,5.75-6.73L166.56,726l-20.3-31.08a17.11,17.11,0,0,0-3.32-4,6.26,6.26,0,0,0-3.62-1.14v-2.18c4.7.28,7.66.42,8.91.42q6.93,0,14.6-.42v2.18a17.6,17.6,0,0,0-5.33.57c-1.07.38-1.61.95-1.61,1.71a6,6,0,0,0,.93,2.27L173,719l10.16-15.23q4.44-6.53,4.45-10a3.2,3.2,0,0,0-2-3.1,15.68,15.68,0,0,0-6-1v-2.07q5.91.31,11.91.31,5.7,0,8.81-.31v2.07a11.7,11.7,0,0,0-6,2.8,31.45,31.45,0,0,0-5.74,6.73l-14.51,21.65,21.44,32.73A17,17,0,0,0,198.88,757.59Z"/><path class="cls-1" d="M276.26,689.64a14.62,14.62,0,0,0-5.39,1.09,4.58,4.58,0,0,0-2.38,2.9,21.28,21.28,0,0,0-.63,6v31.18a71.32,71.32,0,0,1-1,12.79,27.57,27.57,0,0,1-3.26,9.16,18.2,18.2,0,0,1-7.61,7,24.36,24.36,0,0,1-11.35,2.59q-11.39,0-17.4-5.6a21.06,21.06,0,0,1-6.11-9.63q-1.56-5.39-1.56-16V698.55a18.6,18.6,0,0,0-.62-5.7,3.73,3.73,0,0,0-2.33-2.38,20.86,20.86,0,0,0-5.43-.83v-2.07q4.35.31,13.25.31,8.4,0,13.16-.31v2.07a20.88,20.88,0,0,0-5.44.83,3.73,3.73,0,0,0-2.33,2.38,18.93,18.93,0,0,0-.62,5.7v34.29a69.38,69.38,0,0,0,1.14,13.77,16.12,16.12,0,0,0,4.71,8.81q3.58,3.32,10.52,3.31,11,0,15.43-7t4.45-19.79V699.59q0-5.6-2-7.67t-7.4-2.28v-2.07c2.48.21,6,.31,10.56.31q6.22,0,9.64-.31Z"/><path class="cls-1" d="M352.6,755.73a17.84,17.84,0,0,1-4.77,5.07,11.4,11.4,0,0,1-6.32,1.56,10,10,0,0,1-7-2.49c-1.83-1.66-3.19-4.55-4.09-8.7l-2.28-10.36a70.36,70.36,0,0,0-2.33-8.28,10.73,10.73,0,0,0-3.26-4.67,9.53,9.53,0,0,0-6.12-1.75H306.6v23.82a18.93,18.93,0,0,0,.62,5.7,3.77,3.77,0,0,0,2.34,2.38,20.88,20.88,0,0,0,5.44.83v2.07q-4.77-.31-13.16-.31-8.91,0-13.26.31v-2.07A20.88,20.88,0,0,0,294,758a3.73,3.73,0,0,0,2.33-2.38,18.93,18.93,0,0,0,.62-5.7V698.55a18.93,18.93,0,0,0-.62-5.7,3.73,3.73,0,0,0-2.33-2.38,20.88,20.88,0,0,0-5.44-.83v-2.07q4.35.31,12.64.31l11.18-.1c1.31-.07,2.8-.1,4.46-.1q12,0,18.49,5a15.73,15.73,0,0,1,6.47,13,18.82,18.82,0,0,1-8.34,15.48,26.85,26.85,0,0,1-11.75,4.41l1.24.2q6.84,1.14,9.94,4.15t4.56,9.53L340.06,750a23.36,23.36,0,0,0,2.18,6.63,3.5,3.5,0,0,0,3.1,1.87,4.68,4.68,0,0,0,3-.94,16.54,16.54,0,0,0,2.74-3Zm-43.15-65.36a4.1,4.1,0,0,0-2.23,2.59,19,19,0,0,0-.62,5.59V724h6.94q10.26,0,14.09-4.56c2.56-3,3.83-7.25,3.83-12.63q0-8.51-4-12.85t-13.15-4.35A12.32,12.32,0,0,0,309.45,690.37Z"/><path class="cls-1" d="M412.67,687.57v2.07a8.46,8.46,0,0,0-4,2.65,29.64,29.64,0,0,0-4.24,6.57l-16.27,32.22v18.85a18.93,18.93,0,0,0,.62,5.7,3.77,3.77,0,0,0,2.34,2.38,20.88,20.88,0,0,0,5.44.83v2.07q-4.77-.31-13.16-.31-8.91,0-13.26.31v-2.07a20.88,20.88,0,0,0,5.44-.83,3.73,3.73,0,0,0,2.33-2.38,18.93,18.93,0,0,0,.62-5.7V734.39l-21-38.84a17,17,0,0,0-3.26-4.61,4.3,4.3,0,0,0-2.74-1.19v-2.18q4,.31,9.11.31,10.05,0,14.5-.31v2.18q-7.24,0-7.25,3.93a8.36,8.36,0,0,0,1,3.63l17.19,33L399.31,704q2.81-5.49,2.8-8.91a4.34,4.34,0,0,0-2.28-4.14,15.46,15.46,0,0,0-6.84-1.35v-2.07q5.91.31,11.92.31Q409.56,687.88,412.67,687.57Z"/><path class="cls-1" d="M494.81,687.88a36.42,36.42,0,0,1,8.5,5,3.35,3.35,0,0,0,2,.93q2.09,0,2.7-6.21h2.38q-.42,6.73-.41,23.83h-2.38a82.68,82.68,0,0,0-2.08-9.69,17.28,17.28,0,0,0-3.1-5.64,19.23,19.23,0,0,0-7.93-6.07A26.75,26.75,0,0,0,484,688a17.16,17.16,0,0,0-11.76,4.45q-5,4.45-7.82,12.69a60.29,60.29,0,0,0-2.79,19.32,55.75,55.75,0,0,0,3,19.37q3,8.07,8.34,12.27a19,19,0,0,0,12.07,4.2,26.57,26.57,0,0,0,10-2,16.9,16.9,0,0,0,7.67-5.91,19.82,19.82,0,0,0,3-6.21,72.85,72.85,0,0,0,1.77-10.15h2.38q0,17.81.41,24.86H508a18.6,18.6,0,0,0-.88-4.72c-.38-.93-.92-1.39-1.61-1.39a4.43,4.43,0,0,0-2.17.83,43.88,43.88,0,0,1-8.91,5,27.47,27.47,0,0,1-10.26,1.71,32.77,32.77,0,0,1-17.24-4.46A29.71,29.71,0,0,1,455.4,745q-4.09-8.44-4.09-20.15a46.55,46.55,0,0,1,4.19-20.2A32.54,32.54,0,0,1,467.21,691a30.59,30.59,0,0,1,17-4.87A28.24,28.24,0,0,1,494.81,687.88Z"/><path class="cls-1" d="M580.37,760.91q-7-.31-23.72-.31-19.89,0-30,.31v-2.07a20.88,20.88,0,0,0,5.44-.83,3.73,3.73,0,0,0,2.33-2.38,18.6,18.6,0,0,0,.62-5.7V698.55a18.6,18.6,0,0,0-.62-5.7,3.73,3.73,0,0,0-2.33-2.38,20.88,20.88,0,0,0-5.44-.83v-2.07q10.15.31,30,.31,15.23,0,21.65-.31a118,118,0,0,0-.72,12.22,51.67,51.67,0,0,0,.31,6.43h-2.38a48.65,48.65,0,0,0-1.87-10,8.35,8.35,0,0,0-3.83-4.76c-1.8-1-4.53-1.51-8.19-1.51H553a19.08,19.08,0,0,0-5.44.57,3.57,3.57,0,0,0-2.33,2.33,18.6,18.6,0,0,0-.62,5.7V723h6.83a8.25,8.25,0,0,0,5.59-1.71,8.35,8.35,0,0,0,2.65-4,39,39,0,0,0,1.09-5.85l.31-2.08h2.38q-.32,4.35-.31,9.74v5q0,5.28.62,14.71h-2.38c-.07-.48-.28-2.16-.62-5a10.24,10.24,0,0,0-2.85-6.48,9.15,9.15,0,0,0-6.48-2.17h-6.83v24.86a18.6,18.6,0,0,0,.62,5.7,3.57,3.57,0,0,0,2.33,2.33,18.72,18.72,0,0,0,5.44.57h7.56q6.42,0,9.79-1.71a10.32,10.32,0,0,0,4.92-5.49,42.11,42.11,0,0,0,2.28-11.14H580a70,70,0,0,0-.31,7.46C579.65,751.58,579.89,756,580.37,760.91Z"/><path class="cls-1" d="M659.92,689.64a14.56,14.56,0,0,0-5.38,1.09,4.62,4.62,0,0,0-2.39,2.9,21.73,21.73,0,0,0-.62,6v61.83h-2.38L605.64,694.2v54.69a19.82,19.82,0,0,0,.68,6,4.7,4.7,0,0,0,2.64,2.85,18.05,18.05,0,0,0,6.11,1.09v2.07c-2.48-.21-6-.31-10.56-.31q-6.22,0-9.64.31v-2.07a14.46,14.46,0,0,0,5.39-1.09,4.61,4.61,0,0,0,2.38-2.9,21.35,21.35,0,0,0,.62-6V698.55a18.6,18.6,0,0,0-.62-5.7,3.73,3.73,0,0,0-2.33-2.38,20.88,20.88,0,0,0-5.44-.83v-2.07q3.42.31,9.64.31,4.65,0,8.08-.31l36.56,56.35V699.59a20.17,20.17,0,0,0-.67-6,4.7,4.7,0,0,0-2.64-2.85,18.43,18.43,0,0,0-6.12-1.09v-2.07q3.74.31,10.57.31,6.21,0,9.63-.31Z"/><path class="cls-1" d="M729.43,700.83q0,5.17.31,8.49h-2.38a64.06,64.06,0,0,0-2.08-11.86,9.67,9.67,0,0,0-4.35-5.69c-2.07-1.21-5.24-1.82-9.53-1.82h-5.59v58.94a17.36,17.36,0,0,0,.83,6.32,4.64,4.64,0,0,0,2.9,2.69,25.57,25.57,0,0,0,6.73.94v2.07q-5.38-.31-15.22-.31-10.37,0-15.34.31v-2.07a25.59,25.59,0,0,0,6.74-.94,4.67,4.67,0,0,0,2.9-2.69,17.59,17.59,0,0,0,.83-6.32V690h-5.6q-6.42,0-9.52,1.82a9.63,9.63,0,0,0-4.35,5.69,62.4,62.4,0,0,0-2.08,11.86h-2.38q.32-3.32.31-8.49,0-5.91-.72-13.26,8.6.31,29.21.31t29.1-.31Q729.43,694.92,729.43,700.83Z"/><path class="cls-1" d="M796.45,760.91q-7.05-.31-23.72-.31-19.89,0-30,.31v-2.07a20.86,20.86,0,0,0,5.43-.83,3.73,3.73,0,0,0,2.33-2.38,18.6,18.6,0,0,0,.62-5.7V698.55a18.6,18.6,0,0,0-.62-5.7,3.73,3.73,0,0,0-2.33-2.38,20.86,20.86,0,0,0-5.43-.83v-2.07q10.14.31,30,.31,15.22,0,21.65-.31a115.47,115.47,0,0,0-.73,12.22,51.67,51.67,0,0,0,.31,6.43h-2.38a48.65,48.65,0,0,0-1.87-10,8.31,8.31,0,0,0-3.83-4.76c-1.8-1-4.52-1.51-8.18-1.51h-8.6a19.13,19.13,0,0,0-5.44.57,3.61,3.61,0,0,0-2.33,2.33,18.93,18.93,0,0,0-.62,5.7V723h6.84a8.27,8.27,0,0,0,5.59-1.71,8.4,8.4,0,0,0,2.64-4,37.81,37.81,0,0,0,1.09-5.85l.31-2.08h2.38q-.31,4.35-.31,9.74v5q0,5.28.62,14.71h-2.38c-.07-.48-.28-2.16-.62-5a10.19,10.19,0,0,0-2.85-6.48,9.11,9.11,0,0,0-6.47-2.17h-6.84v24.86a18.93,18.93,0,0,0,.62,5.7,3.61,3.61,0,0,0,2.33,2.33,18.77,18.77,0,0,0,5.44.57h7.56c4.28,0,7.55-.57,9.79-1.71a10.32,10.32,0,0,0,4.92-5.49,41.31,41.31,0,0,0,2.28-11.14H796a70,70,0,0,0-.31,7.46C795.72,751.58,796,756,796.45,760.91Z"/><path class="cls-1" d="M875,755.73a17.82,17.82,0,0,1-4.76,5.07,11.42,11.42,0,0,1-6.32,1.56,10,10,0,0,1-7-2.49c-1.83-1.66-3.2-4.55-4.09-8.7l-2.29-10.36a68.76,68.76,0,0,0-2.32-8.28,10.75,10.75,0,0,0-3.27-4.67,9.5,9.5,0,0,0-6.11-1.75H829v23.82a18.93,18.93,0,0,0,.62,5.7,3.75,3.75,0,0,0,2.33,2.38,21,21,0,0,0,5.44.83v2.07q-4.77-.31-13.16-.31c-5.93,0-10.36.1-13.25.31v-2.07a20.86,20.86,0,0,0,5.43-.83,3.73,3.73,0,0,0,2.33-2.38,18.6,18.6,0,0,0,.62-5.7V698.55a18.6,18.6,0,0,0-.62-5.7,3.73,3.73,0,0,0-2.33-2.38,20.86,20.86,0,0,0-5.43-.83v-2.07c2.89.21,7.11.31,12.63.31l11.19-.1c1.31-.07,2.8-.1,4.46-.1q12,0,18.48,5a15.71,15.71,0,0,1,6.48,13,19,19,0,0,1-1.92,8.13,19.25,19.25,0,0,1-6.42,7.35,26.94,26.94,0,0,1-11.76,4.41l1.25.2q6.82,1.14,9.94,4.15t4.56,9.53L862.43,750a23.1,23.1,0,0,0,2.17,6.63,3.51,3.51,0,0,0,3.11,1.87,4.65,4.65,0,0,0,2.95-.94,16.17,16.17,0,0,0,2.75-3Zm-43.14-65.36a4.07,4.07,0,0,0-2.23,2.59,19,19,0,0,0-.62,5.59V724h6.94q10.25,0,14.09-4.56c2.55-3,3.83-7.25,3.83-12.63q0-8.51-4-12.85t-13.16-4.35A12.26,12.26,0,0,0,831.82,690.37Z"/><path class="cls-1" d="M954,732.32H916.6v-6H954Z"/><path class="cls-1" d="M1078.55,690.47a3.75,3.75,0,0,0-2.33,2.38,18.93,18.93,0,0,0-.62,5.7v51.38a18.93,18.93,0,0,0,.62,5.7,3.75,3.75,0,0,0,2.33,2.38,20.9,20.9,0,0,0,5.45.83v2.07q-4.79-.31-13.16-.31-8.91,0-13.26.31v-2.07A20.88,20.88,0,0,0,1063,758a3.73,3.73,0,0,0,2.33-2.38,18.93,18.93,0,0,0,.62-5.7V694.41l-25,67h-1.66l-26.1-67.22v54.69a19.88,19.88,0,0,0,.67,6,4.7,4.7,0,0,0,2.64,2.85,18.05,18.05,0,0,0,6.11,1.09v2.07c-2.48-.21-6-.31-10.56-.31q-6.23,0-9.64.31v-2.07a14.46,14.46,0,0,0,5.39-1.09,4.61,4.61,0,0,0,2.38-2.9,21.73,21.73,0,0,0,.62-6V698.55a18.93,18.93,0,0,0-.62-5.7,3.73,3.73,0,0,0-2.33-2.38,20.88,20.88,0,0,0-5.44-.83v-2.07q3.42.31,9.64.31,5.39,0,8.8-.31l22.79,60L1066,687.88h4.87q8.39,0,13.16-.31v2.07A20.9,20.9,0,0,0,1078.55,690.47Z"/><path class="cls-1" d="M1151.63,760.91q-7.05-.31-23.72-.31-19.89,0-30,.31v-2.07a20.86,20.86,0,0,0,5.43-.83,3.77,3.77,0,0,0,2.34-2.38,18.93,18.93,0,0,0,.62-5.7V698.55a18.93,18.93,0,0,0-.62-5.7,3.77,3.77,0,0,0-2.34-2.38,20.86,20.86,0,0,0-5.43-.83v-2.07q10.14.31,30,.31,15.22,0,21.65-.31a115.47,115.47,0,0,0-.73,12.22,51.67,51.67,0,0,0,.31,6.43h-2.38a47.32,47.32,0,0,0-1.87-10,8.31,8.31,0,0,0-3.83-4.76c-1.8-1-4.52-1.51-8.18-1.51h-8.6a19,19,0,0,0-5.43.57,3.6,3.6,0,0,0-2.34,2.33,18.93,18.93,0,0,0-.62,5.7V723h6.84a8.27,8.27,0,0,0,5.59-1.71,8.4,8.4,0,0,0,2.64-4,37.81,37.81,0,0,0,1.09-5.85l.31-2.08h2.38q-.3,4.35-.3,9.74v5q0,5.28.61,14.71h-2.38c-.07-.48-.28-2.16-.62-5a10.19,10.19,0,0,0-2.85-6.48,9.11,9.11,0,0,0-6.47-2.17h-6.84v24.86a18.93,18.93,0,0,0,.62,5.7,3.6,3.6,0,0,0,2.34,2.33,18.69,18.69,0,0,0,5.43.57h7.56c4.28,0,7.55-.57,9.79-1.71a10.32,10.32,0,0,0,4.92-5.49,41.31,41.31,0,0,0,2.28-11.14h2.38a70,70,0,0,0-.31,7.46C1150.9,751.58,1151.15,756,1151.63,760.91Z"/><path class="cls-1" d="M1230.15,755.73a17.84,17.84,0,0,1-4.77,5.07,11.37,11.37,0,0,1-6.32,1.56,10,10,0,0,1-7-2.49c-1.83-1.66-3.2-4.55-4.09-8.7l-2.28-10.36a70.36,70.36,0,0,0-2.33-8.28,10.65,10.65,0,0,0-3.26-4.67,9.5,9.5,0,0,0-6.11-1.75h-9.85v23.82a18.85,18.85,0,0,0,.63,5.7,3.73,3.73,0,0,0,2.33,2.38,20.88,20.88,0,0,0,5.44.83v2.07q-4.77-.31-13.16-.31-8.91,0-13.26.31v-2.07a20.88,20.88,0,0,0,5.44-.83,3.73,3.73,0,0,0,2.33-2.38,18.93,18.93,0,0,0,.62-5.7V698.55a18.93,18.93,0,0,0-.62-5.7,3.73,3.73,0,0,0-2.33-2.38,20.88,20.88,0,0,0-5.44-.83v-2.07q4.35.31,12.64.31l11.19-.1c1.31-.07,2.79-.1,4.45-.1q12,0,18.49,5a15.71,15.71,0,0,1,6.48,13,19,19,0,0,1-1.92,8.13,19.34,19.34,0,0,1-6.42,7.35,26.94,26.94,0,0,1-11.76,4.41l1.24.2q6.84,1.14,10,4.15t4.56,9.53l2.59,10.56a23.1,23.1,0,0,0,2.17,6.63,3.5,3.5,0,0,0,3.1,1.87,4.68,4.68,0,0,0,3-.94,16.53,16.53,0,0,0,2.75-3ZM1187,690.37a4,4,0,0,0-2.23,2.59,18.93,18.93,0,0,0-.63,5.59V724h6.95q10.25,0,14.09-4.56c2.55-3,3.83-7.25,3.83-12.63q0-8.51-4-12.85t-13.16-4.35A12.23,12.23,0,0,0,1187,690.37Z"/><path class="cls-1" d="M1264.84,689.64a20.86,20.86,0,0,0-5.43.83,3.73,3.73,0,0,0-2.33,2.38,18.53,18.53,0,0,0-.63,5.7v51.38a18.53,18.53,0,0,0,.63,5.7,3.73,3.73,0,0,0,2.33,2.38,20.86,20.86,0,0,0,5.43.83v2.07q-4.75-.31-13.15-.31-8.91,0-13.26.31v-2.07a20.88,20.88,0,0,0,5.44-.83,3.75,3.75,0,0,0,2.33-2.38,18.93,18.93,0,0,0,.62-5.7V698.55a18.93,18.93,0,0,0-.62-5.7,3.75,3.75,0,0,0-2.33-2.38,20.88,20.88,0,0,0-5.44-.83v-2.07q4.35.31,13.26.31,8.28,0,13.15-.31Z"/><path class="cls-1" d="M1334.45,696.74q9.1,9.16,9.11,26.67a42,42,0,0,1-4.45,19.78,31,31,0,0,1-12.89,13.11q-8.46,4.61-20.15,4.61l-6-.11q-5.8-.19-8.49-.2-8.49,0-12.85.31v-2.07a20.88,20.88,0,0,0,5.44-.83,3.73,3.73,0,0,0,2.33-2.38,18.93,18.93,0,0,0,.62-5.7V698.55a18.93,18.93,0,0,0-.62-5.7,3.73,3.73,0,0,0-2.33-2.38,20.88,20.88,0,0,0-5.44-.83v-2.07q3.63.31,10,.31l8.81-.1q7-.21,9.42-.21Q1325.33,687.57,1334.45,696.74Zm-34.86-6.58a4.08,4.08,0,0,0-2.22,2.59,18.93,18.93,0,0,0-.63,5.59v51.8a18.93,18.93,0,0,0,.63,5.59,4.08,4.08,0,0,0,2.22,2.59,12.7,12.7,0,0,0,4.93.72q11,0,17.29-4a21.09,21.09,0,0,0,8.86-11.66q2.53-7.67,2.53-19.58t-2.79-19.42a21.17,21.17,0,0,0-9.06-11.24q-6.27-3.72-16.94-3.73A12.32,12.32,0,0,0,1299.59,690.16Z"/><path class="cls-1" d="M1418.15,758.84v2.07c-2.77-.21-6.46-.31-11.09-.31q-8.91,0-13.26.31v-2.07a17,17,0,0,0,5.65-1,2.86,2.86,0,0,0,1.71-2.85,14.22,14.22,0,0,0-1.25-4.86l-6.31-17h-25.07l-4.25,11q-2.07,5.6-2.07,8.49a5.13,5.13,0,0,0,2.23,4.66q2.22,1.46,6.78,1.56v2.07c-3.93-.21-7.91-.31-11.91-.31q-4.66,0-7.77.31v-2.07q5.18-1.25,8.18-9l24.34-62.78h1.66L1411,752.21C1412.66,756.49,1415,758.7,1418.15,758.84Zm-25.39-27.76-11.6-31-11.81,31Z"/></svg>